<svg fill="currentColor" id="Ausgabe" xmlns="http://www.w3.org/2000/svg" viewBox="0 0 113.39 113.39" xmlns:c2pa="http://c2pa.org/manifest"><path class="cls-1" d="M94.71,47.04h-10.63c-3.33,0-6.04,2.71-6.04,6.04v3.27h-42.64v-3.27c0-3.33-2.71-6.04-6.04-6.04h-10.63c-3.33,0-6.04,2.71-6.04,6.04v17.63c0,3.33,2.71,6.04,6.04,6.04h75.98c3.33,0,6.04-2.71,6.04-6.04v-17.63c0-3.33-2.71-6.04-6.04-6.04ZM95.75,70.71c0,.58-.47,1.04-1.04,1.04H18.73c-.58,0-1.04-.47-1.04-1.04v-17.63c0-.58.47-1.04,1.04-1.04h10.63c.58,0,1.04.47,1.04,1.04v8.27h52.64v-8.27c0-.58.47-1.04,1.04-1.04h10.63c.58,0,1.04.47,1.04,1.04v17.63Z"></path><path class="cls-1" d="M26.54,40.25c0-2.53,2.06-4.59,4.59-4.59h51.18c2.53,0,4.59,2.06,4.59,4.59v3.73h5v-3.73c0-5.29-4.3-9.59-9.59-9.59H31.13c-5.29,0-9.59,4.3-9.59,9.59v3.73h5v-3.73Z"></path><rect class="cls-1" x="21.54" y="80.3" width="5" height="5"></rect><rect class="cls-1" x="86.9" y="80.3" width="5" height="5"></rect></svg>