<svg fill="currentColor" id="Ausgabe" xmlns="http://www.w3.org/2000/svg" viewBox="0 0 113.39 113.39" xmlns:c2pa="http://c2pa.org/manifest"><path class="cls-1" d="M92.1,74.97v-26.84l-1.1-.74c-10.27-6.96-20.05-7.34-21.91-7.35h-.21c-1.86,0-11.64.39-21.91,7.35l-1.1.74v26.84c-.2,2.04-.14,12.99,21.83,24.42l.54.28h1.48l.54-.28c21.97-11.43,22.03-22.38,21.83-24.42ZM68.99,94.42c-18.75-10.08-18.14-18.9-18.14-18.93l.03-24.67c8.85-5.57,17.08-5.77,18.03-5.77h.17c.94,0,9.17.2,18.03,5.77v24.43s.02.18.02.18c0,.09.62,8.92-18.13,19Z"></path><path class="cls-1" d="M50.1,35.96c2.71,0,5.17,1.03,7.04,2.71,2-.64,3.84-1.08,5.46-1.38-2.84-3.83-7.38-6.33-12.5-6.33-8.58,0-15.56,6.98-15.56,15.56,0,5.75,3.14,10.76,7.78,13.46v-6.34c-1.72-1.88-2.78-4.38-2.78-7.12,0-5.82,4.74-10.56,10.56-10.56Z"></path><polygon class="cls-1" points="52.37 18.65 52.37 15.27 47.37 15.27 47.37 18.65 47.37 27.41 52.37 27.41 52.37 18.65"></polygon><rect class="cls-1" x="18.62" y="44.02" width="12.37" height="5"></rect><rect class="cls-1" x="61.74" y="26.16" width="11.98" height="5" transform="translate(-.43 56.29) rotate(-45)"></rect><rect class="cls-1" x="25.97" y="61.76" width="12.31" height="5" transform="translate(-36.03 41.54) rotate(-45)"></rect><rect class="cls-1" x="29.63" y="22.62" width="5" height="12.33" transform="translate(-10.94 31.15) rotate(-45)"></rect></svg>